<?xml version="1.0" encoding="UTF-8"?>
<svg id="Layer_1" xmlns="http://www.w3.org/2000/svg" xmlns:xlink="http://www.w3.org/1999/xlink" version="1.1" viewBox="0 0 300 300">
  <!-- Generator: Adobe Illustrator 29.3.1, SVG Export Plug-In . SVG Version: 2.1.0 Build 151)  -->
  <defs>
    <style>
      .st0 {
        fill: url(#linear-gradient2);
      }

      .st1 {
        fill: url(#linear-gradient1);
      }

      .st2 {
        fill: url(#linear-gradient3);
      }

      .st3 {
        fill: url(#linear-gradient6);
      }

      .st4 {
        fill: url(#linear-gradient7);
      }

      .st5 {
        fill: url(#linear-gradient5);
      }

      .st6 {
        fill: url(#linear-gradient4);
      }

      .st7 {
        fill: url(#linear-gradient);
      }
    </style>
    <linearGradient id="linear-gradient" x1="18.21" y1="156.59" x2="282.14" y2="156.59" gradientTransform="translate(0 300) scale(1 -1)" gradientUnits="userSpaceOnUse">
      <stop offset="0" stop-color="#6d52a2"/>
      <stop offset="1" stop-color="#ca4097"/>
    </linearGradient>
    <linearGradient id="linear-gradient1" x1="18.21" y1="152.72" x2="282.14" y2="152.72" gradientTransform="translate(0 300) scale(1 -1)" gradientUnits="userSpaceOnUse">
      <stop offset="0" stop-color="#6d52a2"/>
      <stop offset="1" stop-color="#ca4097"/>
    </linearGradient>
    <linearGradient id="linear-gradient2" x1="18.21" y1="152.68" x2="282.14" y2="152.68" gradientTransform="translate(0 300) scale(1 -1)" gradientUnits="userSpaceOnUse">
      <stop offset="0" stop-color="#6d52a2"/>
      <stop offset="1" stop-color="#ca4097"/>
    </linearGradient>
    <linearGradient id="linear-gradient3" x1="18.21" y1="152.99" x2="282.14" y2="152.99" gradientTransform="translate(0 300) scale(1 -1)" gradientUnits="userSpaceOnUse">
      <stop offset="0" stop-color="#6d52a2"/>
      <stop offset="1" stop-color="#ca4097"/>
    </linearGradient>
    <linearGradient id="linear-gradient4" x1="18.21" y1="152.99" x2="282.14" y2="152.99" gradientTransform="translate(0 300) scale(1 -1)" gradientUnits="userSpaceOnUse">
      <stop offset="0" stop-color="#6d52a2"/>
      <stop offset="1" stop-color="#ca4097"/>
    </linearGradient>
    <linearGradient id="linear-gradient5" x1="18.21" y1="152.75" x2="282.14" y2="152.75" gradientTransform="translate(0 300) scale(1 -1)" gradientUnits="userSpaceOnUse">
      <stop offset="0" stop-color="#6d52a2"/>
      <stop offset="1" stop-color="#ca4097"/>
    </linearGradient>
    <linearGradient id="linear-gradient6" x1="18.21" y1="158.22" x2="282.14" y2="158.22" gradientTransform="translate(0 300) scale(1 -1)" gradientUnits="userSpaceOnUse">
      <stop offset="0" stop-color="#6d52a2"/>
      <stop offset="1" stop-color="#ca4097"/>
    </linearGradient>
    <linearGradient id="linear-gradient7" x1="18.21" y1="156.2" x2="282.14" y2="156.2" gradientTransform="translate(0 300) scale(1 -1)" gradientUnits="userSpaceOnUse">
      <stop offset="0" stop-color="#6d52a2"/>
      <stop offset="1" stop-color="#ca4097"/>
    </linearGradient>
  </defs>
  <path class="st7" d="M49.09,155.82c.11.37.17.85.19,1.33,0,.52.03,1,.03,1.44,0,1.15-.11,2.26-.28,3.26-.19,1.04-.5,1.93-.95,2.7s-1,1.41-1.7,1.89c-.7.48-1.59.7-2.64.7s-2-.26-2.98-.82-2.2-1.33-3.67-2.37l-16.99-11.45c-1.25-2.19-1.89-5.08-1.89-8.67,0-2.7.28-4.82.86-6.37s1.42-2.67,2.53-3.37l21.61-14.45c2.36.85,3.98,1.96,4.81,3.41s1.28,3,1.28,4.67c0,2.26-.42,4-1.28,5.26-.83,1.26-2.09,2.41-3.73,3.52l-14.46,7.59,19.25,11.67v.04Z"/>
  <path class="st1" d="M84.88,156.71c0,4.89-1.36,8.71-4.12,11.45-2.75,2.74-6.79,4.15-12.15,4.15-2.03,0-3.89-.19-5.65-.59s-3.23-.96-4.45-1.78c-1.22-.82-2.2-1.82-2.89-3.04s-1.06-2.67-1.06-4.33c0-1.56.25-2.85.72-3.89.47-1.07,1.06-1.93,1.72-2.67,1.39,1.04,3,1.93,4.81,2.74s3.89,1.19,6.26,1.19c1.5,0,2.64-.3,3.42-.85.81-.59,1.2-1.33,1.2-2.3,0-.89-.28-1.59-.86-2.11s-1.53-.93-2.89-1.26l-2.17-.59c-4.2-1.07-7.31-2.82-9.37-5.15-2.06-2.33-3.06-5.71-3.06-10.08,0-2.37.39-4.52,1.17-6.45s1.86-3.52,3.25-4.82,3.09-2.3,5.03-3,4.12-1.07,6.48-1.07c1.78,0,3.45.19,5.03.52,1.56.37,2.92.89,4.09,1.59,1.17.7,2.09,1.63,2.75,2.74s1,2.45,1,4-.19,2.74-.61,3.82-.92,1.93-1.56,2.63c-.39-.33-.97-.67-1.72-1-.78-.37-1.61-.67-2.53-.96s-1.84-.52-2.78-.7-1.81-.3-2.56-.3c-1.59,0-2.81.22-3.7.74-.86.48-1.31,1.22-1.31,2.26,0,.7.25,1.3.72,1.74.47.44,1.39.85,2.75,1.26l2.25.67c4.62,1.41,7.93,3.37,9.87,5.82,1.95,2.48,2.92,5.67,2.92,9.6l-.03.04Z"/>
  <path class="st0" d="M101.73,153.71c.67,2.3,1.81,3.93,3.39,4.85s3.37,1.41,5.34,1.41,3.95-.33,5.78-1c1.84-.67,3.31-1.44,4.42-2.37.78.63,1.42,1.56,1.95,2.7.53,1.15.81,2.37.81,3.67,0,1.59-.33,3-1,4.15s-1.61,2.11-2.86,2.89c-1.22.78-2.7,1.33-4.37,1.7-1.7.37-3.53.52-5.56.52-2.84,0-5.48-.52-7.93-1.59s-4.53-2.63-6.31-4.78c-1.78-2.11-3.17-4.78-4.2-8-1-3.22-1.53-6.97-1.53-11.26s.53-7.89,1.56-10.93c1.03-3.04,2.42-5.56,4.12-7.52,1.72-1.96,3.64-3.41,5.81-4.33s4.39-1.41,6.65-1.41c2.56,0,4.87.52,6.98,1.56s3.89,2.45,5.42,4.22,2.7,3.96,3.5,6.45c.81,2.52,1.22,5.22,1.22,8.19,0,2.19-.47,3.85-1.36,5s-2.2,1.89-3.84,2.22l-17.99,3.67h0ZM107.88,134.34c-1.84,0-3.37.74-4.59,2.22-1.22,1.48-1.97,3.56-2.2,6.26l12.29-2.7c-.06-.63-.19-1.3-.44-1.96s-.58-1.3-1-1.89c-.44-.59-1-1.04-1.67-1.41-.67-.33-1.47-.52-2.39-.52h0Z"/>
  <path class="st2" d="M143.17,170.57c-.53.19-1.28.37-2.28.59-1,.19-2.06.3-3.23.3-2.42,0-4.14-.52-5.2-1.59-1.06-1.07-1.59-3.11-1.59-6.11v-28.6c0-1.85.36-3.48,1.08-4.85s1.72-2.59,2.98-3.59c1.7-1.33,3.64-2.37,5.9-3.07,2.25-.7,4.59-1.07,7.06-1.07,5.26,0,7.87,2.48,7.87,7.41,0,1.15-.11,2.22-.36,3.22-.25,1-.53,1.85-.86,2.56-.92-.26-2.25-.37-3.98-.37-1.25,0-2.53.19-3.87.59-1.33.37-2.5.96-3.5,1.74v32.94l-.03-.07Z"/>
  <path class="st6" d="M172.15,170.57c-.53.19-1.28.37-2.28.59-1,.19-2.06.3-3.23.3-2.42,0-4.14-.52-5.2-1.59-1.06-1.07-1.59-3.11-1.59-6.11v-28.6c0-1.85.36-3.48,1.08-4.85s1.72-2.59,2.98-3.59c1.7-1.33,3.64-2.37,5.9-3.07,2.25-.7,4.59-1.07,7.06-1.07,5.26,0,7.87,2.48,7.87,7.41,0,1.15-.11,2.22-.36,3.22-.25,1-.53,1.85-.86,2.56-.92-.26-2.25-.37-3.98-.37-1.25,0-2.53.19-3.87.59-1.33.37-2.5.96-3.5,1.74v32.94l-.03-.07Z"/>
  <path class="st5" d="M202.97,122.41c2.61,0,4.98.37,7.12,1.07,2.14.7,3.98,1.78,5.51,3.22s2.7,3.26,3.5,5.48c.81,2.22,1.22,4.82,1.22,7.85v21.56c0,1.67-.36,3.04-1.06,4.08-.7,1.07-1.53,1.96-2.5,2.74-3.14,2.52-7.54,3.74-13.24,3.74-2.56,0-4.87-.33-6.9-.96-2.06-.63-3.81-1.59-5.28-2.89s-2.61-2.93-3.39-4.93c-.81-2-1.2-4.3-1.2-6.93,0-4.45,1-7.82,2.98-10.23,1.97-2.37,5.03-3.85,9.18-4.45l9.48-1.33v-.67c0-1.85-.61-3.19-1.84-4s-3-1.22-5.31-1.22c-1.78,0-3.56.26-5.31.78s-3.34,1.15-4.73,1.93c-.64-.59-1.17-1.44-1.59-2.63s-.64-2.41-.64-3.7c0-1.67.31-3,.92-4s1.53-1.85,2.78-2.56c1.39-.7,3.06-1.22,4.95-1.56s3.7-.48,5.4-.48l-.06.07ZM203.55,160.27c.81,0,1.72-.11,2.73-.33.97-.22,1.72-.52,2.2-.93v-7.71l-5.2.59c-1.36.11-2.45.52-3.34,1.15-.86.63-1.31,1.59-1.31,2.89s.36,2.33,1.11,3.15,2,1.19,3.81,1.19h0Z"/>
  <path class="st3" d="M234.28,180.87c-.67.11-1.33.22-1.95.22s-1.2.04-1.72.04c-2.03,0-3.59-.59-4.67-1.74s-1.61-3-1.61-5.59c0-1.74.19-3.48.58-5.26s.72-3.33,1-4.67l12.74-61.17c.72-.11,1.39-.22,2.03-.22s1.2-.04,1.72-.04c1.92,0,3.45.56,4.59,1.63s1.7,2.85,1.7,5.3c0,1.85-.19,3.63-.58,5.3s-.75,3.33-1.08,5l-12.74,61.17v.04Z"/>
  <path class="st4" d="M251.27,131.56c-.11-.37-.17-.85-.19-1.33s-.03-1-.03-1.44c0-1.15.08-2.26.28-3.26s.5-1.93.95-2.7c.44-.78,1-1.41,1.7-1.89.7-.48,1.59-.7,2.64-.7s2.06.3,3.14.93,2.25,1.33,3.5,2.15l16.99,11.26c1.25,2.19,1.89,5.08,1.89,8.67,0,2.7-.28,4.82-.86,6.3-.58,1.52-1.42,2.63-2.53,3.41l-21.33,14.45c-2.36-.85-3.98-1.96-4.81-3.41s-1.28-3-1.28-4.67c0-2.26.42-4,1.28-5.26.83-1.26,2.09-2.41,3.73-3.52l14.18-7.59-19.25-11.37h0Z"/>
</svg>