<?xml version="1.0" encoding="UTF-8"?>
<svg id="Layer_1" xmlns="http://www.w3.org/2000/svg" xmlns:xlink="http://www.w3.org/1999/xlink" version="1.1" viewBox="0 0 133.6 59.2">
  <!-- Generator: Adobe Illustrator 29.3.1, SVG Export Plug-In . SVG Version: 2.1.0 Build 151)  -->
  <defs>
    <style>
      .st0 {
        fill: url(#linear-gradient2);
      }

      .st1 {
        fill: url(#linear-gradient1);
      }

      .st2 {
        fill: url(#linear-gradient3);
      }

      .st3 {
        fill: url(#linear-gradient6);
      }

      .st4 {
        fill: url(#linear-gradient7);
      }

      .st5 {
        fill: url(#linear-gradient5);
      }

      .st6 {
        fill: url(#linear-gradient4);
      }

      .st7 {
        fill: url(#linear-gradient);
      }

      .st8 {
        fill: none;
        font-family: Baloo2-Bold, 'Baloo 2';
        font-size: 29px;
        font-weight: 700;
        stroke: #fff;
        stroke-miterlimit: 10;
      }

      .st8, .st9 {
        isolation: isolate;
      }
    </style>
    <linearGradient id="linear-gradient" x1="1.4" y1="46.4" x2="107.2" y2="46.4" gradientTransform="translate(0 62) scale(1 -1)" gradientUnits="userSpaceOnUse">
      <stop offset="0" stop-color="#7e52a1"/>
      <stop offset="1" stop-color="#ee3b95"/>
    </linearGradient>
    <linearGradient id="linear-gradient1" x1="1.4" y1="45.2" x2="107.2" y2="45.2" gradientTransform="translate(0 62) scale(1 -1)" gradientUnits="userSpaceOnUse">
      <stop offset="0" stop-color="#7e52a1"/>
      <stop offset="1" stop-color="#ee3b95"/>
    </linearGradient>
    <linearGradient id="linear-gradient2" x1="1.4" y1="45.2" x2="107.2" y2="45.2" gradientTransform="translate(0 62) scale(1 -1)" gradientUnits="userSpaceOnUse">
      <stop offset="0" stop-color="#7e52a1"/>
      <stop offset="1" stop-color="#ee3b95"/>
    </linearGradient>
    <linearGradient id="linear-gradient3" x1="1.4" y1="45.3" x2="107.2" y2="45.3" gradientTransform="translate(0 62) scale(1 -1)" gradientUnits="userSpaceOnUse">
      <stop offset="0" stop-color="#7e52a1"/>
      <stop offset="1" stop-color="#ee3b95"/>
    </linearGradient>
    <linearGradient id="linear-gradient4" x1="1.4" y1="45.3" x2="107.2" y2="45.3" gradientTransform="translate(0 62) scale(1 -1)" gradientUnits="userSpaceOnUse">
      <stop offset="0" stop-color="#7e52a1"/>
      <stop offset="1" stop-color="#ee3b95"/>
    </linearGradient>
    <linearGradient id="linear-gradient5" x1="1.4" y1="45.2" x2="107.2" y2="45.2" gradientTransform="translate(0 62) scale(1 -1)" gradientUnits="userSpaceOnUse">
      <stop offset="0" stop-color="#7e52a1"/>
      <stop offset="1" stop-color="#ee3b95"/>
    </linearGradient>
    <linearGradient id="linear-gradient6" x1="1.4" y1="46.9" x2="107.2" y2="46.9" gradientTransform="translate(0 62) scale(1 -1)" gradientUnits="userSpaceOnUse">
      <stop offset="0" stop-color="#7e52a1"/>
      <stop offset="1" stop-color="#ee3b95"/>
    </linearGradient>
    <linearGradient id="linear-gradient7" x1="1.4" y1="46.3" x2="107.2" y2="46.3" gradientTransform="translate(0 62) scale(1 -1)" gradientUnits="userSpaceOnUse">
      <stop offset="0" stop-color="#7e52a1"/>
      <stop offset="1" stop-color="#ee3b95"/>
    </linearGradient>
  </defs>
  <g class="st9">
    <text class="st8" transform="translate(.5 23.8)"><tspan x="0" y="0">&lt;</tspan></text>
    <text class="st8" transform="translate(14.7 23.8)"><tspan x="0" y="0">s</tspan></text>
    <text class="st8" transform="translate(29.1 23.8)"><tspan x="0" y="0">e</tspan></text>
    <text class="st8" transform="translate(45 23.8)"><tspan x="0" y="0">r</tspan></text>
    <text class="st8" transform="translate(56.7 23.8)"><tspan x="0" y="0">r</tspan></text>
    <text class="st8" transform="translate(68.2 23.8)"><tspan x="0" y="0">a/&gt;</tspan></text>
  </g>
  <g>
    <path class="st7" d="M13.8,19.3c0,.1,0,.2,0,.4,0,.1,0,.3,0,.4,0,.4,0,.7-.1,1s-.2.6-.4.8c-.2.2-.4.4-.7.6-.3.1-.6.2-1.1.2s-.8,0-1.2-.2c-.4-.2-.9-.4-1.5-.7l-6.8-3.5c-.5-.7-.8-1.5-.8-2.6s.1-1.4.4-1.9.6-.8,1-1l8.7-4.4c.9.2,1.6.6,1.9,1s.5.9.5,1.4-.2,1.2-.5,1.6-.8.7-1.5,1.1l-5.8,2.3,7.7,3.5h0Z"/>
    <path class="st1" d="M28.1,19.6c0,1.5-.5,2.6-1.6,3.5s-2.7,1.2-4.9,1.2-1.6,0-2.3-.2c-.7-.1-1.3-.3-1.8-.5-.5-.2-.9-.5-1.2-.9s-.4-.8-.4-1.3.1-.9.3-1.2c.2-.3.4-.6.7-.8.6.3,1.2.6,1.9.8.7.2,1.6.4,2.5.4s1.1,0,1.4-.3.5-.4.5-.7-.1-.5-.4-.6c-.2-.1-.6-.3-1.2-.4l-.9-.2c-1.7-.3-2.9-.9-3.8-1.5-.8-.7-1.2-1.7-1.2-3s.1-1.4.5-1.9.7-1.1,1.3-1.4c.6-.4,1.2-.7,2-.9.8-.2,1.6-.3,2.6-.3s1.4,0,2,.2c.6.1,1.2.3,1.6.5.5.2.8.5,1.1.8s.4.7.4,1.2,0,.8-.2,1.1c-.2.3-.4.6-.6.8-.1-.1-.4-.2-.7-.3-.3-.1-.6-.2-1-.3s-.7-.2-1.1-.2c-.4,0-.7,0-1,0-.6,0-1.1,0-1.5.2s-.5.4-.5.7.1.4.3.5c.2.1.6.3,1.1.4l.9.2c1.9.4,3.2,1,4,1.8.8.7,1.2,1.7,1.2,2.9h0Z"/>
    <path class="st0" d="M34.9,18.7c.3.7.7,1.2,1.4,1.5.6.3,1.3.4,2.2.4s1.6-.1,2.3-.3,1.3-.4,1.8-.7c.3.2.6.5.8.8s.3.7.3,1.1-.1.9-.4,1.2-.7.6-1.2.9c-.5.2-1.1.4-1.8.5-.7.1-1.4.2-2.2.2s-2.2-.2-3.2-.5-1.8-.8-2.5-1.4c-.7-.6-1.3-1.4-1.7-2.4-.4-1-.6-2.1-.6-3.4s.2-2.4.6-3.3c.4-.9,1-1.7,1.6-2.3.7-.6,1.5-1,2.3-1.3.9-.3,1.8-.4,2.7-.4s2,.1,2.8.5,1.6.7,2.2,1.3c.6.5,1.1,1.2,1.4,1.9.3.8.5,1.6.5,2.5s-.2,1.2-.5,1.5c-.4.4-.9.6-1.5.7l-7.2,1.1h0ZM37.3,12.9c-.7,0-1.3.2-1.8.7s-.8,1.1-.9,1.9l4.9-.8c0-.2,0-.4-.2-.6s-.2-.4-.4-.6-.4-.3-.7-.4c-.3-.1-.6-.2-1-.2h0Z"/>
    <path class="st2" d="M51.5,23.8c-.2,0-.5.1-.9.2-.4,0-.8,0-1.3,0-1,0-1.7-.2-2.1-.5s-.6-.9-.6-1.8v-8.6c0-.6.2-1.1.4-1.5.3-.4.7-.8,1.2-1.1.7-.4,1.5-.7,2.4-.9s1.8-.3,2.8-.3c2.1,0,3.2.7,3.2,2.2s0,.7-.2,1-.2.6-.3.8c-.4,0-.9-.1-1.6-.1s-1,0-1.5.2c-.5.1-1,.3-1.4.5v9.9h0Z"/>
    <path class="st6" d="M63.1,23.8c-.2,0-.5.1-.9.2-.4,0-.8,0-1.3,0-1,0-1.7-.2-2.1-.5s-.6-.9-.6-1.8v-8.6c0-.6.2-1.1.4-1.5.3-.4.7-.8,1.2-1.1.7-.4,1.5-.7,2.4-.9s1.8-.3,2.8-.3c2.1,0,3.2.7,3.2,2.2s0,.7-.2,1-.2.6-.3.8c-.4,0-.9-.1-1.6-.1s-1,0-1.6.2c-.5.1-1,.3-1.4.5v9.9h0Z"/>
    <path class="st5" d="M75.5,9.3c1,0,2,.1,2.9.3s1.6.5,2.2,1,1.1,1,1.4,1.6.5,1.5.5,2.4v6.5c0,.5-.1.9-.4,1.2s-.6.6-1,.8c-1.3.8-3,1.1-5.3,1.1s-1.9-.1-2.8-.3-1.5-.5-2.1-.9-1-.9-1.4-1.5-.5-1.3-.5-2.1c0-1.3.4-2.4,1.2-3.1.8-.7,2-1.2,3.7-1.3l3.8-.4v-.2c0-.6-.2-1-.7-1.2s-1.2-.4-2.1-.4-1.4,0-2.1.2-1.3.4-1.9.6c-.2-.2-.5-.4-.6-.8-.2-.4-.3-.7-.3-1.1s.1-.9.4-1.2.6-.6,1.1-.8c.6-.2,1.2-.4,2-.5s1.5-.1,2.2-.1h0ZM75.7,20.7c.3,0,.7,0,1.1-.1.4,0,.7-.2.9-.3v-2.3l-2.1.2c-.5,0-1,.1-1.3.4-.3.2-.5.5-.5.9s.2.7.4.9c.3.2.8.4,1.5.4h0Z"/>
    <path class="st3" d="M88,26.9c-.3,0-.5,0-.8,0s-.5,0-.7,0c-.8,0-1.4-.2-1.9-.5s-.7-.9-.7-1.7,0-1,.2-1.6.3-1,.4-1.4l5.1-18.4c.3,0,.6,0,.8,0,.2,0,.5,0,.7,0,.8,0,1.4.2,1.8.5.4.3.7.9.7,1.6s0,1.1-.2,1.6c-.2.5-.3,1-.4,1.5l-5.1,18.4h0Z"/>
    <path class="st4" d="M94.8,12c0-.1,0-.2,0-.4,0-.1,0-.3,0-.4,0-.4,0-.7.1-1,0-.3.2-.6.4-.8s.4-.4.7-.6.6-.2,1.1-.2.8,0,1.3.3c.4.2.9.4,1.4.6l6.8,3.4c.5.7.8,1.5.8,2.6s-.1,1.4-.3,1.9c-.2.5-.6.8-1,1l-8.6,4.4c-.9-.2-1.6-.6-1.9-1s-.5-.9-.5-1.4.2-1.2.5-1.6.8-.7,1.5-1.1l5.7-2.3-7.7-3.4h0Z"/>
  </g>
</svg>